<?xml version="1.0" encoding="UTF-8" standalone="no"?>
<!-- Created with Inkscape (http://www.inkscape.org/) -->

<svg
   xmlns:dc="http://purl.org/dc/elements/1.1/"
   xmlns:cc="http://creativecommons.org/ns#"
   xmlns:rdf="http://www.w3.org/1999/02/22-rdf-syntax-ns#"
   xmlns:svg="http://www.w3.org/2000/svg"
   xmlns="http://www.w3.org/2000/svg"
   xmlns:sodipodi="http://sodipodi.sourceforge.net/DTD/sodipodi-0.dtd"
   xmlns:inkscape="http://www.inkscape.org/namespaces/inkscape"
   width="1024"
   height="768"
   viewBox="0 0 1024 768"
   version="1.1"
   id="svg8"
   inkscape:version="0.92.2 5c3e80d, 2017-08-06"
   sodipodi:docname="floorplan.svg">
  <defs
     id="defs2" />
  <sodipodi:namedview
     id="base"
     pagecolor="#ffffff"
     bordercolor="#666666"
     borderopacity="1.0"
     inkscape:pageopacity="0.0"
     inkscape:pageshadow="2"
     inkscape:zoom="0.98994949"
     inkscape:cx="381.67831"
     inkscape:cy="341.82779"
     inkscape:document-units="px"
     inkscape:current-layer="layer4"
     showgrid="false"
     units="px"
     inkscape:window-width="2085"
     inkscape:window-height="1303"
     inkscape:window-x="1869"
     inkscape:window-y="7"
     inkscape:window-maximized="0"
     showguides="false" />
  <metadata
     id="metadata5">
    <rdf:RDF>
      <cc:Work
         rdf:about="">
        <dc:format>image/svg+xml</dc:format>
        <dc:type
           rdf:resource="http://purl.org/dc/dcmitype/StillImage" />
        <dc:title />
      </cc:Work>
    </rdf:RDF>
  </metadata>
  <g
     inkscape:label="Rooms"
     inkscape:groupmode="layer"
     id="layer1"
     transform="translate(0,-93.799981)"
     style="display:inline">
    <rect
       id="group.closet_lights"
       width="135.6039"
       height="256.01971"
       x="-1004.4587"
       y="129.4099"
       style="fill:#c5c5c5;fill-opacity:1;stroke:none;stroke-width:0.94397861;stroke-opacity:1"
       inkscape:label="#rect94"
       transform="scale(-1,1)" />
    <rect
       id="group.hall_closet"
       width="71.22361"
       height="115.80896"
       x="-860.03522"
       y="272.32745"
       style="fill:#c5c5c5;fill-opacity:1;stroke:none;stroke-width:0.85977876;stroke-opacity:1"
       inkscape:label="#rect96"
       transform="scale(-1,1)" />
    <rect
       id="group.bedroom_lights"
       width="272.74118"
       height="438.11633"
       x="-1004.4292"
       y="394.38922"
       style="fill:#c5c5c5;fill-opacity:1;stroke:none;stroke-width:1.00547802;stroke-opacity:1"
       inkscape:label="#rect98"
       transform="scale(-1,1)" />
    <rect
       id="group.kitchen_lights"
       width="229.47075"
       height="206.02188"
       x="-634.73517"
       y="129.4176"
       style="fill:#c5c5c5;fill-opacity:1;stroke:none;stroke-width:0.96092546;stroke-opacity:1"
       inkscape:label="#rect100"
       transform="scale(-1,1)" />
    <rect
       id="group.livingroom_lights"
       width="324.25897"
       height="398.72491"
       x="-454.90625"
       y="433.78064"
       style="fill:#c5c5c5;fill-opacity:1;stroke:none;stroke-width:0.98967063;stroke-opacity:1"
       inkscape:label="#rect102"
       transform="scale(-1,1)" />
    <rect
       style="fill:#c5c5c5;fill-opacity:1;stroke:none;stroke-width:0.84668434;stroke-opacity:1"
       id="group.office_closet"
       width="170.71573"
       height="46.118584"
       x="-635.72357"
       y="434.50546"
       inkscape:label="#rect4608"
       transform="scale(-1,1)" />
    <g
       id="group.bathroom_lights"
       transform="matrix(-1.0047342,0,0,1.0091806,1077.1722,0.79547924)"
       inkscape:label="#g4616">
      <rect
         y="126.74062"
         x="215.91031"
         height="133.62675"
         width="213.37135"
         id="rect4610"
         style="fill:#c5c5c5;fill-opacity:1;stroke:none;stroke-width:1.00806582;stroke-opacity:1" />
      <rect
         y="259.29922"
         x="296.78571"
         height="42.500771"
         width="132.49596"
         id="rect4612"
         style="fill:#c5c5c5;fill-opacity:1;stroke:none;stroke-width:1.01280832;stroke-opacity:1" />
    </g>
    <g
       id="group.hallway_lights"
       style="stroke:none;stroke-opacity:1"
       inkscape:label="#g4629"
       transform="matrix(-1,0,0,1.0754872,1075.1399,-20.533405)">
      <rect
         y="312.15714"
         x="296.78571"
         height="79.938721"
         width="132.14288"
         id="rect4620"
         style="fill:#c5c5c5;fill-opacity:1;stroke:none;stroke-width:1.07137203;stroke-opacity:1" />
      <rect
         y="376.79999"
         x="343.21429"
         height="45.18745"
         width="85.714287"
         id="rect4622"
         style="fill:#c5c5c5;fill-opacity:1;stroke:none;stroke-width:0.65740079;stroke-opacity:1" />
      <rect
         y="341.08569"
         x="428.21429"
         height="81.071426"
         width="240.71428"
         id="rect4624"
         style="fill:#c5c5c5;fill-opacity:1;stroke:none;stroke-opacity:1" />
    </g>
    <rect
       style="fill:#c5c5c5;fill-opacity:1;stroke:none;stroke-width:1.02028739;stroke-opacity:1"
       id="group.dining_area"
       width="274.64285"
       height="304.99997"
       x="-406.2113"
       y="129.11615"
       inkscape:label="#rect4631"
       transform="scale(-1,1)" />
    <flowRoot
       xml:space="preserve"
       id="flowRoot4698"
       style="font-style:normal;font-weight:normal;font-size:40px;line-height:1.25;font-family:sans-serif;letter-spacing:0px;word-spacing:0px;fill:#000000;fill-opacity:1;stroke:none"
       transform="translate(0,93.799981)"><flowRegion
         id="flowRegion4700"><rect
           id="rect4702"
           width="73.741135"
           height="40.406101"
           x="944.49261"
           y="17.456659" /></flowRegion><flowPara
         id="flowPara4704" /></flowRoot>    <path
       id="path5038"
       d="m 592.15881,647.09435 a 19.25,19.25 0 0 1 19.25,19.25 c 0,6.545 -3.2725,12.2925 -8.25,15.785 v 6.215 a 2.75,2.75 0 0 1 -2.75,2.75 h -16.5 a 2.75,2.75 0 0 1 -2.75,-2.75 v -6.215 c -4.9775,-3.4925 -8.25,-9.24 -8.25,-15.785 a 19.25,19.25 0 0 1 19.25,-19.25 m 8.25,52.25 a 2.75,2.75 0 0 1 -2.75,2.75 h -11 a 2.75,2.75 0 0 1 -2.75,-2.75 v -2.75 h 16.5 z"
       inkscape:connector-curvature="0"
       style="stroke-width:2.75" />
    <text
       id="text5230"
       y="798.31921"
       x="505.02924"
       style="font-style:normal;font-weight:normal;font-size:24.17167473px;line-height:1.25;font-family:sans-serif;letter-spacing:0px;word-spacing:0px;fill:#000000;fill-opacity:1;stroke:none;stroke-width:0.6042918"
       xml:space="preserve"><tspan
         style="stroke-width:0.6042918"
         y="798.31921"
         x="505.02924"
         id="tspan5228"
         sodipodi:role="line">temp</tspan></text>
    <text
       id="text5234"
       y="823.97546"
       x="465.66586"
       style="font-style:normal;font-weight:normal;font-size:22.73259354px;line-height:1.25;font-family:sans-serif;letter-spacing:0px;word-spacing:0px;fill:#000000;fill-opacity:1;stroke:none;stroke-width:0.56831485"
       xml:space="preserve"><tspan
         style="stroke-width:0.56831485"
         y="823.97546"
         x="465.66586"
         id="tspan5232"
         sodipodi:role="line">humidity</tspan></text>
    <path
       style="stroke-width:2.06421995"
       inkscape:connector-curvature="0"
       d="m 699.28289,797.32573 h 10.0733 v -3.71553 h -7.47242 l -4.12846,-6.874 c -0.61928,-1.03202 -1.73398,-1.73376 -3.01377,-1.73376 -0.37167,0 -0.70176,0.0612 -1.03221,0.16548 l -11.188,3.48849 v 10.73379 h 3.71553 v -7.5755 l 4.35566,-1.36213 -8.07119,31.64417 h 3.71553 l 5.92436,-16.74082 4.80962,6.41963 v 10.32119 h 3.71567 v -13.23155 l -5.14007,-9.37185 1.50693,-5.92409 m 1.98173,-9.04136 c 2.06416,0 3.71554,-1.65136 3.71554,-3.71562 0,-2.06407 -1.65138,-3.71553 -3.71554,-3.71553 -2.06426,0 -3.71571,1.65146 -3.71571,3.71553 0,2.06426 1.65145,3.71562 3.71571,3.71562 z"
       id="path5317" />
    <g
       id="group.office_lights"
       transform="translate(-2.3095703e-5,1.0570312e-6)"
       inkscape:label="#g5337">
      <rect
         y="433.60416"
         x="646.9256"
         height="56.366856"
         width="74.64286"
         id="rect5333"
         style="fill:#c5c5c5;fill-opacity:1;stroke:none;stroke-width:6.52093458;stroke-miterlimit:4;stroke-dasharray:none;stroke-opacity:1" />
      <rect
         transform="scale(-1,1)"
         inkscape:label="#rect4606"
         y="488.63721"
         x="-720.57446"
         height="344.43277"
         width="255.56471"
         id="group.office"
         style="fill:#c5c5c5;fill-opacity:1;stroke:none;stroke-width:1.03466737;stroke-opacity:1" />
    </g>
  </g>
  <g
     inkscape:groupmode="layer"
     id="layer2"
     inkscape:label="Walls"
     style="display:inline">
    <rect
       style="display:inline;fill:#fefefe;fill-opacity:1;stroke:none;stroke-width:13.70819569;stroke-miterlimit:4;stroke-dasharray:none;stroke-opacity:1"
       id="rect5472"
       width="48.311951"
       height="10.00066"
       x="412.89316"
       y="685.38611"
       transform="rotate(-35)" />
    <rect
       style="fill:#808080;fill-opacity:1;stroke:none;stroke-width:6.99831963;stroke-miterlimit:4;stroke-dasharray:none;stroke-opacity:1"
       id="rect4637"
       width="743.62024"
       height="8.5863066"
       x="-1013.6685"
       y="120.85309"
       transform="matrix(-1,0,0,1,0,-93.799981)" />
    <rect
       style="fill:#808080;fill-opacity:1;stroke:none;stroke-width:7;stroke-miterlimit:4;stroke-dasharray:none;stroke-opacity:1"
       id="rect4639"
       width="60.739223"
       height="8.2630615"
       x="-185.70058"
       y="120.85309"
       transform="matrix(-1,0,0,1,0,-93.799981)" />
    <rect
       style="fill:#808080;fill-opacity:1;stroke:none;stroke-width:8.19796658;stroke-miterlimit:4;stroke-dasharray:none;stroke-opacity:1"
       id="rect4641"
       width="8.2112789"
       height="710.96558"
       x="-133.17268"
       y="129.11615"
       transform="matrix(-1,0,0,1,0,-93.799981)" />
    <rect
       style="fill:#808080;fill-opacity:1;stroke:none;stroke-width:9.27136898;stroke-miterlimit:4;stroke-dasharray:none;stroke-opacity:1"
       id="rect4645"
       width="882.36823"
       height="7.57617"
       x="-1013.5206"
       y="832.50555"
       transform="matrix(-1,0,0,1,0,-93.799981)" />
    <rect
       style="fill:#808080;fill-opacity:1;stroke:none;stroke-width:9.39418125;stroke-miterlimit:4;stroke-dasharray:none;stroke-opacity:1"
       id="rect4647"
       width="9.0913773"
       height="704.07635"
       x="-1013.5206"
       y="128.42926"
       transform="matrix(-1,0,0,1,0,-93.799981)" />
    <rect
       style="display:inline;fill:#808080;fill-opacity:1;stroke:none;stroke-width:5.37905502;stroke-miterlimit:4;stroke-dasharray:none;stroke-opacity:1"
       id="rect4649"
       width="28.818836"
       height="9.1748009"
       x="-1004.4587"
       y="385.42963"
       transform="matrix(-1,0,0,1,0,-93.799981)" />
    <rect
       style="display:inline;fill:#808080;fill-opacity:1;stroke:none;stroke-width:5.45520973;stroke-miterlimit:4;stroke-dasharray:none;stroke-opacity:1"
       id="rect4651"
       width="122.30716"
       height="9.4701767"
       x="-900.88861"
       y="291.20801"
       transform="scale(-1,1)" />
    <rect
       style="display:inline;fill:#808080;fill-opacity:1;stroke:none;stroke-width:7.25218725;stroke-miterlimit:4;stroke-dasharray:none;stroke-opacity:1"
       id="rect4657"
       width="9.0336018"
       height="259.20209"
       x="-869.06879"
       y="128.93431"
       transform="matrix(-1,0,0,1,0,-93.799981)" />
    <rect
       style="display:inline;fill:#808080;fill-opacity:1;stroke:none;stroke-width:8.54339981;stroke-miterlimit:4;stroke-dasharray:none;stroke-opacity:1"
       id="rect4661"
       width="10.457367"
       height="48.415977"
       x="-788.81158"
       y="272.32745"
       transform="matrix(-1,0,0,1,0,-93.799981)" />
    <rect
       style="display:inline;fill:#808080;fill-opacity:1;stroke:none;stroke-width:7;stroke-miterlimit:4;stroke-dasharray:none;stroke-opacity:1"
       id="rect4663"
       width="81.885559"
       height="8.9296265"
       x="-860.23975"
       y="263.39783"
       transform="matrix(-1,0,0,1,0,-93.799981)" />
    <rect
       style="display:inline;fill:#808080;fill-opacity:1;stroke:none;stroke-width:7;stroke-miterlimit:4;stroke-dasharray:none;stroke-opacity:1"
       id="rect4667"
       width="14.285724"
       height="10.000012"
       x="-778.35419"
       y="305.18759"
       transform="matrix(-1,0,0,1,0,-93.799981)" />
    <rect
       style="display:inline;fill:#808080;fill-opacity:1;stroke:none;stroke-width:7;stroke-miterlimit:4;stroke-dasharray:none;stroke-opacity:1"
       id="rect4669"
       width="54.999985"
       height="10.000012"
       x="-701.21136"
       y="305.18759"
       transform="matrix(-1,0,0,1,0,-93.799981)" />
    <rect
       style="display:inline;fill:#808080;fill-opacity:1;stroke:none;stroke-width:7;stroke-miterlimit:4;stroke-dasharray:none;stroke-opacity:1"
       id="rect4674"
       width="12.19043"
       height="214.69855"
       x="-646.9256"
       y="129.4176"
       transform="matrix(-1,0,0,1,0,-93.799981)" />
    <rect
       style="display:inline;fill:#808080;fill-opacity:1;stroke:none;stroke-width:7;stroke-miterlimit:4;stroke-dasharray:none;stroke-opacity:1"
       id="rect4676"
       width="229.47076"
       height="8.6766663"
       x="-634.73517"
       y="335.43948"
       transform="matrix(-1,0,0,1,0,-93.799981)" />
    <rect
       style="display:inline;fill:#808080;fill-opacity:1;stroke:none;stroke-width:6.74805069;stroke-miterlimit:4;stroke-dasharray:none;stroke-opacity:1"
       id="rect4684"
       width="199.75766"
       height="9.4590368"
       x="-654.66394"
       y="425.04642"
       transform="matrix(-1,0,0,1,0,-93.799981)" />
    <rect
       style="display:inline;fill:#808080;fill-opacity:1;stroke:none;stroke-width:8.28618431;stroke-miterlimit:4;stroke-dasharray:none;stroke-opacity:1"
       id="rect4665"
       width="10.403972"
       height="12.472363"
       x="-788.81158"
       y="375.66406"
       transform="matrix(-1,0,0,1,0,-93.799981)" />
    <rect
       style="display:inline;fill:#393939;fill-opacity:1;stroke:none;stroke-width:7;stroke-miterlimit:4;stroke-dasharray:none;stroke-opacity:1"
       id="rect4690"
       width="0.94689941"
       height="206.32333"
       x="-406.2113"
       y="129.11615"
       transform="matrix(-1,0,0,1,0,-93.799981)" />
    <rect
       style="display:inline;fill:#393939;fill-opacity:1;stroke:none;stroke-width:8.90977001;stroke-miterlimit:4;stroke-dasharray:none;stroke-opacity:1"
       id="rect4692"
       width="0.94688964"
       height="89.374985"
       x="-406.2113"
       y="344.11615"
       transform="matrix(-1,0,0,1,0,-93.799981)" />
    <rect
       style="display:inline;fill:#393939;fill-opacity:1;stroke:none;stroke-width:5.22880602;stroke-miterlimit:4;stroke-dasharray:none;stroke-opacity:1"
       id="rect4694"
       width="49.389282"
       height="1.0143301"
       x="-454.65369"
       y="433.49112"
       transform="matrix(-1,0,0,1,0,-93.799981)" />
    <rect
       style="display:inline;fill:#808080;fill-opacity:1;stroke:none;stroke-width:7.48555136;stroke-miterlimit:4;stroke-dasharray:none;stroke-opacity:1"
       id="rect4655"
       width="11.113586"
       height="408.41354"
       x="-731.68805"
       y="424.65646"
       transform="matrix(-1,0,0,1,0,-93.799981)" />
    <rect
       style="display:inline;fill:#808080;fill-opacity:1;stroke:none;stroke-width:6.3005929;stroke-miterlimit:4;stroke-dasharray:none;stroke-opacity:1"
       id="rect4682"
       width="11.202057"
       height="59.668346"
       x="-646.9256"
       y="425.18756"
       transform="matrix(-1,0,0,1,0,-93.799981)" />
    <rect
       style="display:inline;fill:#808080;fill-opacity:1;stroke:none;stroke-width:11.61279011;stroke-miterlimit:4;stroke-dasharray:none;stroke-opacity:1"
       id="rect4686"
       width="10.354121"
       height="398.25262"
       x="-465.00781"
       y="434.50546"
       transform="matrix(-1,0,0,1,0,-93.799981)" />
    <rect
       style="display:inline;fill:#808080;fill-opacity:1;stroke:none;stroke-width:7.08853483;stroke-miterlimit:4;stroke-dasharray:none;stroke-opacity:1"
       id="rect4688"
       width="16.382078"
       height="10.173228"
       x="-481.38992"
       y="479.19547"
       transform="matrix(-1,0,0,1,0,-93.799981)" />
    <rect
       transform="translate(0,-93.799981)"
       style="display:inline;fill:#808080;fill-opacity:1;stroke:none;stroke-width:7;stroke-miterlimit:4;stroke-dasharray:none;stroke-opacity:1"
       id="rect5331"
       width="33.167534"
       height="10.41842"
       x="613.75806"
       y="479.55261" />
    <rect
       transform="translate(0,-93.799981)"
       style="display:inline;fill:#808080;fill-opacity:1;stroke:none;stroke-width:6.62707949;stroke-miterlimit:4;stroke-dasharray:none;stroke-opacity:1"
       id="rect5339"
       width="9.9159889"
       height="8.7299547"
       x="711.65247"
       y="425.01788" />
    <rect
       style="display:inline;fill:#808080;fill-opacity:1;stroke:none;stroke-width:7;stroke-miterlimit:4;stroke-dasharray:none;stroke-opacity:1"
       id="rect5466"
       width="12.597666"
       height="10.00066"
       x="346.49405"
       y="762.22253"
       transform="rotate(-35,-148.74777,-46.89999)" />
    <rect
       transform="rotate(-33,-158.33171,-46.899991)"
       y="747.51526"
       x="430.04123"
       height="10.00066"
       width="12.597666"
       id="rect5470"
       style="display:inline;fill:#808080;fill-opacity:1;stroke:none;stroke-width:7;stroke-miterlimit:4;stroke-dasharray:none;stroke-opacity:1" />
  </g>
  <g
     inkscape:groupmode="layer"
     id="layer3"
     inkscape:label="Icons"
     style="display:inline">
    <path
       transform="translate(0,-93.799981)"
       id="light.closet_light"
       d="m 933.5904,286.46989 a 19.25,19.25 0 0 0 -19.25001,19.25 c 0,6.545 3.2725,12.2925 8.25,15.785 v 6.215 a 2.75,2.75 0 0 0 2.75001,2.75 h 16.5 a 2.75,2.75 0 0 0 2.75,-2.75 v -6.215 c 4.97749,-3.4925 8.25,-9.24 8.25,-15.785 a 19.25,19.25 0 0 0 -19.25,-19.25 m -8.25,52.25 a 2.75,2.75 0 0 0 2.75,2.75 h 11 a 2.75,2.75 0 0 0 2.75,-2.75 v -2.75 h -16.5 z"
       inkscape:connector-curvature="0"
       style="display:inline;stroke-width:2.75"
       inkscape:label="#path4880" />
    <path
       id="light.kitchen_light"
       d="m 529.52937,163.37549 a 19.249997,19.249997 0 0 1 19.24999,19.25 c 0,6.545 -3.2725,12.2925 -8.24999,15.785 v 6.21501 a 2.7499998,2.7499998 0 0 1 -2.75001,2.74999 h -16.49999 a 2.7499998,2.7499998 0 0 1 -2.75001,-2.74999 v -6.21501 c -4.9775,-3.4925 -8.25,-9.24 -8.25,-15.785 a 19.249997,19.249997 0 0 1 19.25001,-19.25 m 8.24999,52.25001 a 2.7499998,2.7499998 0 0 1 -2.74999,2.74999 h -11 a 2.7499998,2.7499998 0 0 1 -2.75,-2.74999 v -2.75001 h 16.49999 z"
       inkscape:connector-curvature="0"
       style="display:inline;stroke-width:2.75"
       inkscape:label="#path4979" />
    <path
       id="light.bedroom_light"
       d="m 876.01168,505.73599 a 19.25,19.25 0 0 1 19.25,19.25 c 0,6.545 -3.2725,12.2925 -8.25,15.785 v 6.215 a 2.75,2.75 0 0 1 -2.75,2.75 h -16.5 a 2.75,2.75 0 0 1 -2.75,-2.75 v -6.215 c -4.9775,-3.4925 -8.25,-9.24 -8.25,-15.785 a 19.25,19.25 0 0 1 19.25,-19.25 m 8.25,52.25 a 2.75,2.75 0 0 1 -2.75,2.75 h -11 a 2.75,2.75 0 0 1 -2.75,-2.75 v -2.75 h 16.5 z"
       inkscape:connector-curvature="0"
       style="display:inline;stroke-width:2.75"
       inkscape:label="#path5166" />
    <path
       id="binary_sensor.n_8266_1_motion"
       d="m 430.36482,373.87237 h 10.0733 v -3.71553 h -7.47242 l -4.12846,-6.874 c -0.61928,-1.03202 -1.73398,-1.73376 -3.01377,-1.73376 -0.37167,0 -0.70176,0.0612 -1.03221,0.16548 l -11.188,3.48849 v 10.73379 h 3.71553 v -7.5755 l 4.35566,-1.36213 -8.07119,31.64417 h 3.71553 l 5.92436,-16.74082 4.80962,6.41963 v 10.32119 h 3.71567 v -13.23155 l -5.14007,-9.37185 1.50693,-5.92409 m 1.98173,-9.04136 c 2.06416,0 3.71554,-1.65136 3.71554,-3.71562 0,-2.06407 -1.65138,-3.71553 -3.71554,-3.71553 -2.06426,0 -3.71571,1.65146 -3.71571,3.71553 0,2.06426 1.65145,3.71562 3.71571,3.71562 z"
       inkscape:connector-curvature="0"
       style="display:inline;stroke-width:2.06421995"
       inkscape:label="#path5300" />
    <path
       transform="translate(0,-93.799981)"
       id="binary_sensor.n_8266_4_motion"
       d="m 982.14004,800.18287 h 10.0733 v -3.71553 h -7.47242 l -4.12846,-6.874 c -0.61928,-1.03202 -1.73398,-1.73376 -3.01377,-1.73376 -0.37167,0 -0.70176,0.0612 -1.03221,0.16548 l -11.188,3.48849 v 10.73379 h 3.71553 v -7.5755 l 4.35566,-1.36213 -8.07119,31.64417 h 3.71553 l 5.92436,-16.74082 4.80962,6.41963 v 10.32119 h 3.71567 v -13.23155 l -5.14007,-9.37185 1.50693,-5.92409 m 1.98173,-9.04136 c 2.06416,0 3.71554,-1.65136 3.71554,-3.71562 0,-2.06407 -1.65138,-3.71553 -3.71554,-3.71553 -2.06426,0 -3.71571,1.65146 -3.71571,3.71553 0,2.06426 1.65145,3.71562 3.71571,3.71562 z"
       inkscape:connector-curvature="0"
       style="display:inline;stroke-width:2.06421995"
       inkscape:label="#path5319" />
    <path
       transform="translate(0,-93.799981)"
       style="display:inline;stroke-width:2.06421995"
       inkscape:connector-curvature="0"
       d="m 987.14004,154.46858 h 10.0733 v -3.71553 h -7.47242 l -4.12846,-6.874 c -0.61928,-1.03202 -1.73398,-1.73376 -3.01377,-1.73376 -0.37167,0 -0.70176,0.0612 -1.03221,0.16548 l -11.188,3.48849 v 10.73379 h 3.71553 v -7.5755 l 4.35566,-1.36213 -8.07119,31.64417 h 3.71553 l 5.92436,-16.74082 4.80962,6.41963 v 10.32119 h 3.71567 v -13.23155 l -5.14007,-9.37185 1.50693,-5.92409 m 1.98173,-9.04136 c 2.06416,0 3.71554,-1.65136 3.71554,-3.71562 0,-2.06407 -1.65138,-3.71553 -3.71554,-3.71553 -2.06426,0 -3.71571,1.65146 -3.71571,3.71553 0,2.06426 1.65145,3.71562 3.71571,3.71562 z"
       id="binary_sensor.n_8266_7_motion"
       inkscape:label="#path5321" />
    <path
       transform="translate(0,-93.799981)"
       id="binary_sensor.n_8266_3_motion"
       d="m 616.42575,155.18287 h 10.0733 v -3.71553 h -7.47242 l -4.12846,-6.874 c -0.61928,-1.03202 -1.73398,-1.73376 -3.01377,-1.73376 -0.37167,0 -0.70176,0.0612 -1.03221,0.16548 l -11.188,3.48849 v 10.73379 h 3.71553 v -7.5755 l 4.35566,-1.36213 -8.07119,31.64417 h 3.71553 l 5.92436,-16.74082 4.80962,6.41963 v 10.32119 h 3.71567 v -13.23155 l -5.14007,-9.37185 1.50693,-5.92409 m 1.98173,-9.04136 c 2.06416,0 3.71554,-1.65136 3.71554,-3.71562 0,-2.06407 -1.65138,-3.71553 -3.71554,-3.71553 -2.06426,0 -3.71571,1.65146 -3.71571,3.71553 0,2.06426 1.65145,3.71562 3.71571,3.71562 z"
       inkscape:connector-curvature="0"
       style="display:inline;stroke-width:2.06421995"
       inkscape:label="#path5323" />
    <path
       transform="translate(0,-93.799981)"
       style="display:inline;stroke-width:2.06421995"
       inkscape:connector-curvature="0"
       d="m 155.71146,153.7543 h 10.0733 v -3.71553 h -7.47242 l -4.12846,-6.874 c -0.61928,-1.03202 -1.73398,-1.73376 -3.01377,-1.73376 -0.37167,0 -0.70176,0.0612 -1.03221,0.16548 l -11.188,3.48849 v 10.73379 h 3.71553 v -7.5755 l 4.35566,-1.36213 -8.07119,31.64417 h 3.71553 l 5.92436,-16.74082 4.80962,6.41963 v 10.32119 h 3.71567 v -13.23155 l -5.14007,-9.37185 1.50693,-5.92409 m 1.98173,-9.04136 c 2.06416,0 3.71554,-1.65136 3.71554,-3.71562 0,-2.06407 -1.65138,-3.71553 -3.71554,-3.71553 -2.06426,0 -3.71571,1.65146 -3.71571,3.71553 0,2.06426 1.65145,3.71562 3.71571,3.71562 z"
       id="path5325" />
    <path
       style="display:inline;stroke-width:2.75"
       inkscape:connector-curvature="0"
       d="m 290.99294,506.4727 a 19.25,19.25 0 0 1 19.25,19.25 c 0,6.545 -3.2725,12.2925 -8.25,15.785 v 6.215 a 2.75,2.75 0 0 1 -2.75,2.75 h -16.5 a 2.75,2.75 0 0 1 -2.75,-2.75 v -6.215 c -4.9775,-3.4925 -8.25,-9.24 -8.25,-15.785 a 19.25,19.25 0 0 1 19.25,-19.25 m 8.25,52.25 a 2.75,2.75 0 0 1 -2.75,2.75 h -11 a 2.75,2.75 0 0 1 -2.75,-2.75 v -2.75 h 16.5 z"
       id="light.livingroom_light"
       inkscape:label="#path5327" />
    <path
       transform="translate(0,-93.799981)"
       id="path5329"
       d="m 263.67821,249.72944 a 19.25,19.25 0 0 1 19.25,19.25 c 0,6.545 -3.2725,12.2925 -8.25,15.785 v 6.215 a 2.75,2.75 0 0 1 -2.75,2.75 h -16.5 a 2.75,2.75 0 0 1 -2.75,-2.75 v -6.215 c -4.9775,-3.4925 -8.25,-9.24 -8.25,-15.785 a 19.25,19.25 0 0 1 19.25,-19.25 m 8.25,52.25 a 2.75,2.75 0 0 1 -2.75,2.75 h -11 a 2.75,2.75 0 0 1 -2.75,-2.75 v -2.75 h 16.5 z"
       inkscape:connector-curvature="0"
       style="display:inline;stroke-width:2.75" />
    <path
       id="media_player.living_room_speaker"
       d="m 420.67269,641.66639 a 7.088833,7.088833 0 0 0 -7.08883,7.08883 7.088833,7.088833 0 0 0 7.08883,7.08883 7.088833,7.088833 0 0 0 7.08883,-7.08883 7.088833,7.088833 0 0 0 -7.08883,-7.08883 m 0,18.90355 a 11.814722,11.814722 0 0 1 -11.81472,-11.81472 11.814722,11.814722 0 0 1 11.81472,-11.81472 11.814722,11.814722 0 0 1 11.81472,11.81472 11.814722,11.814722 0 0 1 -11.81472,11.81472 m 0,-37.80711 a 4.7258887,4.7258887 0 0 1 4.72589,4.72589 4.7258887,4.7258887 0 0 1 -4.72589,4.72589 c -2.62286,0 -4.72589,-2.12664 -4.72589,-4.72589 0,-2.62286 2.10303,-4.72589 4.72589,-4.72589 m 11.81472,-4.72589 h -23.62944 c -2.62286,0 -4.72589,2.10303 -4.72589,4.72589 v 37.80711 a 4.7258887,4.7258887 0 0 0 4.72589,4.72589 h 23.62944 a 4.7258887,4.7258887 0 0 0 4.72589,-4.72589 v -37.80711 c 0,-2.62286 -2.12665,-4.72589 -4.72589,-4.72589 z"
       inkscape:connector-curvature="0"
       style="display:inline;stroke-width:2.36294436"
       inkscape:label="#path5548" />
    <path
       id="media_player.office_speaker"
       d="m 971.40786,615.40244 a 7.8680932,7.8680932 0 0 0 -7.86809,7.86809 7.8680932,7.8680932 0 0 0 7.86809,7.86809 7.8680932,7.8680932 0 0 0 7.86809,-7.86809 7.8680932,7.8680932 0 0 0 -7.86809,-7.86809 m 0,20.98157 a 13.113488,13.113488 0 0 1 -13.11349,-13.11348 13.113488,13.113488 0 0 1 13.11349,-13.11349 13.113488,13.113488 0 0 1 13.11348,13.11349 13.113488,13.113488 0 0 1 -13.11348,13.11348 m 0,-41.96316 a 5.2453955,5.2453955 0 0 1 5.24539,5.24539 5.2453955,5.2453955 0 0 1 -5.24539,5.2454 c -2.91119,0 -5.24541,-2.36042 -5.24541,-5.2454 0,-2.91119 2.33422,-5.24539 5.24541,-5.24539 m 13.11348,-5.2454 h -26.22697 c -2.91119,0 -5.2454,2.33421 -5.2454,5.2454 v 41.96316 a 5.2453955,5.2453955 0 0 0 5.2454,5.2454 h 26.22697 a 5.2453955,5.2453955 0 0 0 5.2454,-5.2454 v -41.96316 c 0,-2.91119 -2.36042,-5.2454 -5.2454,-5.2454 z"
       inkscape:connector-curvature="0"
       style="display:inline;stroke-width:2.62269759"
       inkscape:label="#path5561" />
    <path
       id="media_player.minispeaker"
       d="m 155.24252,347.51872 a 13.2,13.2 0 0 1 13.2,13.2 13.2,13.2 0 0 1 -13.2,13.2 13.2,13.2 0 0 1 -13.2,-13.2 13.2,13.2 0 0 1 13.2,-13.2 m 28.6,11 a 2.2,2.2 0 0 1 2.2,2.2 2.2,2.2 0 0 1 -2.2,2.2 2.2,2.2 0 0 1 -2.2,-2.2 2.2,2.2 0 0 1 2.2,-2.2 m -7.7,4.4 a 5.5,5.5 0 0 1 5.5,5.5 5.5,5.5 0 0 1 -5.5,5.5 5.5,5.5 0 0 1 -5.5,-5.5 5.5,5.5 0 0 1 5.5,-5.5 m 0,13.2 a 6.6,6.6 0 0 1 6.6,6.6 6.6,6.6 0 0 1 -6.6,6.6 6.6,6.6 0 0 1 -6.6,-6.6 6.6,6.6 0 0 1 6.6,-6.6 z"
       inkscape:connector-curvature="0"
       style="stroke-width:2.20000005"
       inkscape:label="#path5681" />
    <path
       style="display:inline;stroke-width:2.75"
       inkscape:connector-curvature="0"
       d="m 581.15881,518.25937 a 19.25,19.25 0 0 1 19.25,19.25 c 0,6.545 -3.2725,12.2925 -8.25,15.785 v 6.215 a 2.75,2.75 0 0 1 -2.75,2.75 h -16.5 a 2.75,2.75 0 0 1 -2.75,-2.75 v -6.215 c -4.9775,-3.4925 -8.25,-9.24 -8.25,-15.785 a 19.25,19.25 0 0 1 19.25,-19.25 m 8.25,52.25 a 2.75,2.75 0 0 1 -2.75,2.75 h -11 a 2.75,2.75 0 0 1 -2.75,-2.75 v -2.75 h 16.5 z"
       id="light.office_light"
       inkscape:label="#path5692" />
    <path
       style="display:inline;stroke-width:2.75"
       inkscape:connector-curvature="0"
       d="m 529.69815,51.246036 a 19.249997,19.249997 0 0 1 19.24999,19.25 c 0,6.545 -3.2725,12.2925 -8.24999,15.785 v 6.215011 a 2.7499998,2.7499998 0 0 1 -2.75001,2.74999 h -16.49999 a 2.7499998,2.7499998 0 0 1 -2.75001,-2.74999 v -6.215011 c -4.9775,-3.4925 -8.25,-9.24 -8.25,-15.785 a 19.249997,19.249997 0 0 1 19.25001,-19.25 m 8.24999,52.250014 a 2.7499998,2.7499998 0 0 1 -2.74999,2.74999 h -11 a 2.7499998,2.7499998 0 0 1 -2.75,-2.74999 v -2.75001 h 16.49999 z"
       id="light.prep_light"
       inkscape:label="#path902" />
    <path
       style="display:inline;stroke-width:2.06421995"
       inkscape:connector-curvature="0"
       d="m 497.93182,430.83929 h 10.0733 v -3.71553 h -7.47242 l -4.12846,-6.874 c -0.61928,-1.03202 -1.73398,-1.73376 -3.01377,-1.73376 -0.37167,0 -0.70176,0.0612 -1.03221,0.16548 l -11.188,3.48849 v 10.73379 h 3.71553 v -7.5755 l 4.35566,-1.36213 -8.07119,31.64417 h 3.71553 l 5.92436,-16.74082 4.80962,6.41963 v 10.32119 h 3.71567 v -13.23155 l -5.14007,-9.37185 1.50693,-5.92409 m 1.98173,-9.04136 c 2.06416,0 3.71554,-1.65136 3.71554,-3.71562 0,-2.06407 -1.65138,-3.71553 -3.71554,-3.71553 -2.06426,0 -3.71571,1.65146 -3.71571,3.71553 0,2.06426 1.65145,3.71562 3.71571,3.71562 z"
       id="binary_sensor.n_8266_5_motion"
       inkscape:label="#path904" />
    <path
       id="media_player.living_room_tv"
       d="m 421.23362,522.24967 7.30464,-12.667 h -0.0211 c 0.71779,-1.2667 1.16114,-2.68119 1.16114,-4.22234 0,-2.5334 -1.14003,-4.79235 -2.91341,-6.3335 h 10.11249 c 0.80225,1.96338 1.24559,4.09566 1.24559,6.3335 a 16.889342,16.889342 0 0 1 -16.88934,16.88934 m -16.88934,-16.88934 c 0,-3.0823 0.82335,-5.95349 2.25895,-8.44467 l 7.32575,12.66701 h 0.0211 c 1.4567,2.51229 4.11678,4.22233 7.28353,4.22233 0.95002,0 1.85783,-0.19 2.7234,-0.48557 l -5.0668,8.74024 c -8.21244,-1.14003 -14.54594,-8.17022 -14.54594,-16.69934 m 23.22284,0 a 6.3335034,6.3335034 0 0 1 -6.3335,6.33351 6.3335034,6.3335034 0 0 1 -6.33351,-6.33351 6.3335034,6.3335034 0 0 1 6.33351,-6.3335 6.3335034,6.3335034 0 0 1 6.3335,6.3335 m -6.3335,-16.88934 c 6.24905,0 11.69587,3.39898 14.60928,8.44467 h -14.60928 c -4.09567,0 -7.49465,2.91341 -8.27578,6.77685 l -5.02458,-8.71912 c 3.08231,-3.94789 7.89577,-6.5024 13.30036,-6.5024 m 0,-4.22234 a 21.111678,21.111678 0 0 0 -21.11168,21.11168 21.111678,21.111678 0 0 0 21.11168,21.11168 21.111678,21.111678 0 0 0 21.11168,-21.11168 21.111678,21.111678 0 0 0 -21.11168,-21.11168 z"
       inkscape:connector-curvature="0"
       style="stroke-width:2.11116791"
       inkscape:label="#path1039" />
    <path
       id="media_player.rasplex"
       d="m 437.26408,445.97454 h 4.0203 v 4.0203 h -4.0203 v -4.0203 m -32.16244,-6.03046 h 32.16244 a 4.0203051,4.0203051 0 0 1 4.0203,4.02031 h -6.03046 v 4.0203 h -28.14213 v 8.04061 h 6.03046 v 6.03046 h 22.11167 v 2.01015 h 6.03046 a 4.0203051,4.0203051 0 0 1 -4.0203,4.02031 h -8.04061 v 2.01015 h -4.02031 v -2.01015 h -6.03046 v 2.01015 h -8.04061 v -2.01015 h -6.03045 a 4.0203051,4.0203051 0 0 1 -4.02031,-4.02031 v -20.10152 a 4.0203051,4.0203051 0 0 1 4.02031,-4.02031 m 30.15228,20.10153 H 415.1524 v -10.05077 h 20.10152 v 2.01016 h 6.03046 v 4.0203 h -6.03046 v 4.02031 m -12.06091,-6.03046 v 4.0203 h 4.0203 v -4.0203 h -4.0203 m -16.08122,-12.06092 v 4.02031 h 2.01015 v -4.02031 h -2.01015 m 4.0203,0 v 4.02031 h 2.01016 v -4.02031 h -2.01016 m 4.02031,0 v 4.02031 h 2.01015 v -4.02031 h -2.01015 m 4.0203,0 v 4.02031 h 2.01016 v -4.02031 h -2.01016 m 4.02031,0 v 4.02031 h 2.01015 v -4.02031 h -2.01015 m 4.0203,0 v 4.02031 h 2.01016 v -4.02031 h -2.01016 m 10.05077,16.08122 h 4.0203 v 4.02031 h -4.0203 z"
       inkscape:connector-curvature="0"
       style="stroke-width:2.01015258"
       inkscape:label="#path1098" />
    <path
       inkscape:label="#path5692"
       id="light.desk_light"
       d="m 501.0027,583.17528 a 14.956852,14.956852 0 0 1 14.95685,14.95685 c 0,5.08532 -2.54266,9.55102 -6.41008,12.26461 v 4.82894 a 2.1366931,2.1366931 0 0 1 -2.13669,2.13669 h -12.82016 a 2.1366931,2.1366931 0 0 1 -2.1367,-2.13669 v -4.82894 c -3.86741,-2.71359 -6.41007,-7.17929 -6.41007,-12.26461 a 14.956852,14.956852 0 0 1 14.95685,-14.95685 m 6.41008,40.59717 a 2.1366931,2.1366931 0 0 1 -2.1367,2.13669 h -8.54677 a 2.1366931,2.1366931 0 0 1 -2.13669,-2.13669 v -2.1367 h 12.82016 z"
       inkscape:connector-curvature="0"
       style="display:inline;stroke-width:2.136693" />
    <g
       id="light.monitor_light"
       inkscape:label="#g1078">
      <path
         inkscape:label="#path5631"
         id="path5631"
         d="m 531.44432,718.52284 h -44 v -33 h 44 m 0,-5.5 h -44 c -3.0525,0 -5.5,2.4475 -5.5,5.5 v 33 a 5.5,5.5 0 0 0 5.5,5.5 h 11 v 5.5 h 22 v -5.5 h 11 a 5.5,5.5 0 0 0 5.5,-5.5 v -33 c 0,-3.0525 -2.475,-5.5 -5.5,-5.5 z"
         inkscape:connector-curvature="0"
         style="stroke-width:2.75" />
      <path
         inkscape:label="#path5692"
         id="path1072"
         d="m 511.10423,666.00779 a 14.956852,14.956852 0 0 1 14.95685,14.95685 c 0,5.08532 -2.54266,9.55102 -6.41008,12.26461 v 4.82894 a 2.1366931,2.1366931 0 0 1 -2.13669,2.13669 h -12.82016 a 2.1366931,2.1366931 0 0 1 -2.1367,-2.13669 v -4.82894 c -3.86741,-2.71359 -6.41007,-7.17929 -6.41007,-12.26461 a 14.956852,14.956852 0 0 1 14.95685,-14.95685 m 6.41008,40.59717 a 2.1366931,2.1366931 0 0 1 -2.1367,2.13669 h -8.54677 a 2.1366931,2.1366931 0 0 1 -2.13669,-2.13669 v -2.1367 h 12.82016 z"
         inkscape:connector-curvature="0"
         style="display:inline;stroke-width:2.136693" />
    </g>
    <g
       id="light.server_light"
       inkscape:label="#g1082">
      <path
         inkscape:label="#path979"
         style="display:inline;stroke-width:2.23790908"
         inkscape:connector-curvature="0"
         d="m 557.04779,683.25886 h 38.12198 a 2.3826234,2.1019846 0 0 1 2.38262,2.10199 v 8.40793 a 2.3826234,2.1019846 0 0 1 -2.38262,2.10199 h -38.12198 a 2.3826234,2.1019846 0 0 1 -2.38262,-2.10199 v -8.40793 a 2.3826234,2.1019846 0 0 1 2.38262,-2.10199 m 0,16.81588 h 38.12198 a 2.3826234,2.1019846 0 0 1 2.38262,2.10198 v 8.40794 a 2.3826234,2.1019846 0 0 1 -2.38262,2.10198 h -38.12198 a 2.3826234,2.1019846 0 0 1 -2.38262,-2.10198 v -8.40794 a 2.3826234,2.1019846 0 0 1 2.38262,-2.10198 m 0,16.81587 h 38.12198 a 2.3826234,2.1019846 0 0 1 2.38262,2.10199 v 8.40794 a 2.3826234,2.1019846 0 0 1 -2.38262,2.10198 h -38.12198 a 2.3826234,2.1019846 0 0 1 -2.38262,-2.10198 v -8.40794 a 2.3826234,2.1019846 0 0 1 2.38262,-2.10199 m 11.91312,-25.22381 h 2.38262 v -4.20397 h -2.38262 v 4.20397 m 0,16.81588 h 2.38262 v -4.20397 h -2.38262 v 4.20397 m 0,16.81587 h 2.38262 v -4.20397 h -2.38262 v 4.20397 m -9.5305,-37.83572 v 4.20397 h 4.76526 v -4.20397 h -4.76526 m 0,16.81588 v 4.20397 h 4.76526 v -4.20397 h -4.76526 m 0,16.81587 v 4.20397 h 4.76526 v -4.20397 z"
         id="path979" />
    </g>
    <path
       inkscape:label="#path5321"
       id="binary_sensor.n_8266_6_motion"
       d="m 670.96229,180.87675 h 10.0733 v -3.71553 h -7.47242 l -4.12846,-6.874 c -0.61928,-1.03202 -1.73398,-1.73376 -3.01377,-1.73376 -0.37167,0 -0.70176,0.0612 -1.03221,0.16548 l -11.188,3.48849 v 10.73379 h 3.71553 v -7.5755 l 4.35566,-1.36213 -8.07119,31.64417 h 3.71553 l 5.92436,-16.74082 4.80962,6.41963 v 10.32119 h 3.71567 v -13.23155 l -5.14007,-9.37185 1.50693,-5.92409 m 1.98173,-9.04136 c 2.06416,0 3.71554,-1.65136 3.71554,-3.71562 0,-2.06407 -1.65138,-3.71553 -3.71554,-3.71553 -2.06426,0 -3.71571,1.65146 -3.71571,3.71553 0,2.06426 1.65145,3.71562 3.71571,3.71562 z"
       inkscape:connector-curvature="0"
       style="display:inline;stroke-width:2.06421995" />
    <path
       inkscape:label="#path4880"
       style="display:inline;stroke-width:2.75"
       inkscape:connector-curvature="0"
       d="m 745.70203,101.75618 a 19.25,19.25 0 0 0 -19.25001,19.25 c 0,6.545 3.2725,12.2925 8.25,15.785 v 6.215 a 2.75,2.75 0 0 0 2.75001,2.75 h 16.5 a 2.75,2.75 0 0 0 2.75,-2.75 v -6.215 c 4.97749,-3.4925 8.25,-9.24 8.25,-15.785 a 19.25,19.25 0 0 0 -19.25,-19.25 m -8.25,52.25 a 2.75,2.75 0 0 0 2.75,2.75 h 11 a 2.75,2.75 0 0 0 2.75,-2.75 v -2.75 h -16.5 z"
       id="light.bathroom_light" />
    <g
       inkscape:label="#g1078"
       id="light.hyperion"
       transform="translate(-88.931528,-128.23119)">
      <path
         style="stroke-width:2.75"
         inkscape:connector-curvature="0"
         d="m 531.44432,718.52284 h -44 v -33 h 44 m 0,-5.5 h -44 c -3.0525,0 -5.5,2.4475 -5.5,5.5 v 33 a 5.5,5.5 0 0 0 5.5,5.5 h 11 v 5.5 h 22 v -5.5 h 11 a 5.5,5.5 0 0 0 5.5,-5.5 v -33 c 0,-3.0525 -2.475,-5.5 -5.5,-5.5 z"
         id="path902"
         inkscape:label="#path5631" />
      <path
         style="display:inline;stroke-width:2.136693"
         inkscape:connector-curvature="0"
         d="m 511.10423,666.00779 a 14.956852,14.956852 0 0 1 14.95685,14.95685 c 0,5.08532 -2.54266,9.55102 -6.41008,12.26461 v 4.82894 a 2.1366931,2.1366931 0 0 1 -2.13669,2.13669 h -12.82016 a 2.1366931,2.1366931 0 0 1 -2.1367,-2.13669 v -4.82894 c -3.86741,-2.71359 -6.41007,-7.17929 -6.41007,-12.26461 a 14.956852,14.956852 0 0 1 14.95685,-14.95685 m 6.41008,40.59717 a 2.1366931,2.1366931 0 0 1 -2.1367,2.13669 h -8.54677 a 2.1366931,2.1366931 0 0 1 -2.13669,-2.13669 v -2.1367 h 12.82016 z"
         id="path904"
         inkscape:label="#path5692" />
    </g>
  </g>
  <g
     inkscape:groupmode="layer"
     id="layer4"
     inkscape:label="Text"
     style="display:inline">
    <text
       transform="translate(0,-93.799981)"
       xml:space="preserve"
       style="font-style:normal;font-weight:normal;font-size:31.89163017px;line-height:1.25;font-family:sans-serif;letter-spacing:0px;word-spacing:0px;display:inline;fill:#000000;fill-opacity:1;stroke:none;stroke-width:0.7972908"
       x="26.209465"
       y="134.64005"
       id="sensor.dark_sky_apparent_temperature"
       inkscape:label="#text4708"><tspan
         sodipodi:role="line"
         x="26.209465"
         y="134.64005"
         id="tspan4710"
         style="stroke-width:0.7972908">Temp</tspan></text>
    <text
       xml:space="preserve"
       style="font-style:normal;font-weight:normal;font-size:24.17167473px;line-height:1.25;font-family:sans-serif;letter-spacing:0px;word-spacing:0px;display:inline;fill:#000000;fill-opacity:1;stroke:none;stroke-width:0.6042918"
       x="649.48102"
       y="701.48877"
       id="sensor.h_8266_2_temp"
       inkscape:label="#text1053"><tspan
         sodipodi:role="line"
         id="tspan1051"
         x="649.48102"
         y="701.48877"
         style="stroke-width:0.6042918">temp</tspan></text>
    <text
       xml:space="preserve"
       style="font-style:normal;font-weight:normal;font-size:22.73259354px;line-height:1.25;font-family:sans-serif;letter-spacing:0px;word-spacing:0px;display:inline;fill:#000000;fill-opacity:1;stroke:none;stroke-width:0.56831485"
       x="610.11768"
       y="727.14508"
       id="sensor.h_8266_2_humidity"
       inkscape:label="#text1057"><tspan
         sodipodi:role="line"
         id="tspan1055"
         x="610.11768"
         y="727.14508"
         style="stroke-width:0.56831485">humidity</tspan></text>
    <text
       inkscape:label="#text1053"
       id="sensor.n_8266_6_temp"
       y="60.041901"
       x="788.88208"
       style="font-style:normal;font-weight:normal;font-size:24.17167473px;line-height:1.25;font-family:sans-serif;letter-spacing:0px;word-spacing:0px;display:inline;fill:#000000;fill-opacity:1;stroke:none;stroke-width:0.6042918"
       xml:space="preserve"><tspan
         style="stroke-width:0.6042918"
         y="60.041901"
         x="788.88208"
         id="tspan910"
         sodipodi:role="line">temp</tspan></text>
    <text
       inkscape:label="#text1057"
       id="sensor.n_8266_6_humidity"
       y="85.698212"
       x="749.51874"
       style="font-style:normal;font-weight:normal;font-size:22.73259354px;line-height:1.25;font-family:sans-serif;letter-spacing:0px;word-spacing:0px;display:inline;fill:#000000;fill-opacity:1;stroke:none;stroke-width:0.56831485"
       xml:space="preserve"><tspan
         style="stroke-width:0.56831485"
         y="85.698212"
         x="749.51874"
         id="tspan914"
         sodipodi:role="line">humidity</tspan></text>
    <text
       xml:space="preserve"
       style="font-style:normal;font-weight:normal;font-size:24.17167473px;line-height:1.25;font-family:sans-serif;letter-spacing:0px;word-spacing:0px;display:inline;fill:#000000;fill-opacity:1;stroke:none;stroke-width:0.6042918"
       x="776.76025"
       y="703.50909"
       id="sensor.n_8266_4_temp"
       inkscape:label="#text1053"><tspan
         sodipodi:role="line"
         id="tspan918"
         x="776.76025"
         y="703.50909"
         style="stroke-width:0.6042918">temp</tspan></text>
    <text
       xml:space="preserve"
       style="font-style:normal;font-weight:normal;font-size:22.73259354px;line-height:1.25;font-family:sans-serif;letter-spacing:0px;word-spacing:0px;display:inline;fill:#000000;fill-opacity:1;stroke:none;stroke-width:0.56831485"
       x="737.39691"
       y="729.16541"
       id="sensor.n_8266_4_humidity"
       inkscape:label="#text1057"><tspan
         sodipodi:role="line"
         id="tspan922"
         x="737.39691"
         y="729.16541"
         style="stroke-width:0.56831485">humidity</tspan></text>
  </g>
</svg>
